<svg id="visual" viewBox="0 0 960 540" width="960" height="540" xmlns="http://www.w3.org/2000/svg" xmlns:xlink="http://www.w3.org/1999/xlink" version="1.1"><rect x="0" y="0" width="960" height="540" fill="#0E0E0E"></rect><path d="M258 0L273 12.8C288 25.7 318 51.3 325.2 77C332.3 102.7 316.7 128.3 307.8 154C299 179.7 297 205.3 294.2 231.2C291.3 257 287.7 283 299 308.8C310.3 334.7 336.7 360.3 349.2 386C361.7 411.7 360.3 437.3 340.5 463C320.7 488.7 282.3 514.3 263.2 527.2L244 540L0 540L0 527.2C0 514.3 0 488.7 0 463C0 437.3 0 411.7 0 386C0 360.3 0 334.7 0 308.8C0 283 0 257 0 231.2C0 205.3 0 179.7 0 154C0 128.3 0 102.7 0 77C0 51.3 0 25.7 0 12.8L0 0Z" fill="#00e2c4"></path><path d="M238 0L250.3 12.8C262.7 25.7 287.3 51.3 281.7 77C276 102.7 240 128.3 233.2 154C226.3 179.7 248.7 205.3 250.3 231.2C252 257 233 283 232.7 308.8C232.3 334.7 250.7 360.3 256.2 386C261.7 411.7 254.3 437.3 254.5 463C254.7 488.7 262.3 514.3 266.2 527.2L270 540L0 540L0 527.2C0 514.3 0 488.7 0 463C0 437.3 0 411.7 0 386C0 360.3 0 334.7 0 308.8C0 283 0 257 0 231.2C0 205.3 0 179.7 0 154C0 128.3 0 102.7 0 77C0 51.3 0 25.7 0 12.8L0 0Z" fill="#00c8ad"></path><path d="M219 0L207.3 12.8C195.7 25.7 172.3 51.3 176.8 77C181.3 102.7 213.7 128.3 224.5 154C235.3 179.7 224.7 205.3 211.7 231.2C198.7 257 183.3 283 191 308.8C198.7 334.7 229.3 360.3 234.7 386C240 411.7 220 437.3 220 463C220 488.7 240 514.3 250 527.2L260 540L0 540L0 527.2C0 514.3 0 488.7 0 463C0 437.3 0 411.7 0 386C0 360.3 0 334.7 0 308.8C0 283 0 257 0 231.2C0 205.3 0 179.7 0 154C0 128.3 0 102.7 0 77C0 51.3 0 25.7 0 12.8L0 0Z" fill="#00af97"></path><path d="M164 0L153 12.8C142 25.7 120 51.3 121.3 77C122.7 102.7 147.3 128.3 150.3 154C153.3 179.7 134.7 205.3 121.8 231.2C109 257 102 283 110 308.8C118 334.7 141 360.3 153.8 386C166.7 411.7 169.3 437.3 169.7 463C170 488.7 168 514.3 167 527.2L166 540L0 540L0 527.2C0 514.3 0 488.7 0 463C0 437.3 0 411.7 0 386C0 360.3 0 334.7 0 308.8C0 283 0 257 0 231.2C0 205.3 0 179.7 0 154C0 128.3 0 102.7 0 77C0 51.3 0 25.7 0 12.8L0 0Z" fill="#009682"></path><path d="M98 0L93.7 12.8C89.3 25.7 80.7 51.3 76.2 77C71.7 102.7 71.3 128.3 72 154C72.7 179.7 74.3 205.3 80.2 231.2C86 257 96 283 96.2 308.8C96.3 334.7 86.7 360.3 80.8 386C75 411.7 73 437.3 75.8 463C78.7 488.7 86.3 514.3 90.2 527.2L94 540L0 540L0 527.2C0 514.3 0 488.7 0 463C0 437.3 0 411.7 0 386C0 360.3 0 334.7 0 308.8C0 283 0 257 0 231.2C0 205.3 0 179.7 0 154C0 128.3 0 102.7 0 77C0 51.3 0 25.7 0 12.8L0 0Z" fill="#007e6d"></path></svg>